<?xml version="1.0" encoding="UTF-8" standalone="no"?>
<!DOCTYPE svg  PUBLIC '-//W3C//DTD SVG 20010904//EN'  'http://www.w3.org/TR/2001/REC-SVG-20010904/DTD/svg10.dtd'>
<svg xmlns="http://www.w3.org/2000/svg" height="72pt" width="386pt" version="1.0" preserveAspectRatio="xMidYMid meet" viewBox="0 0 386.000000 72.000000">
 <g transform="translate(0 72) scale(0.1 -0.1)">
  <path d="m60 605l34-35-32-33c-25-26-32-41-32-74 0-24 6-46 15-53 11-9 15-33 15-87v-74l51-55 52-54h106 107l52 53 52 53v70c0 58 4 74 20 89 34 30 27 82-17 127l-37 38 34 29c19 16 32 32 29 35s-24-10-46-29c-37-32-47-35-102-35-56 0-61-2-75-27l-14-28-13 28c-11 25-16 27-72 27-54 0-64 4-103 35-23 19-46 35-50 35s7-16 26-35zm77-67c27-25 29-38 8-38-11 0-15-11-15-40v-40h40c33 0 40 3 40 20 0 25 12 25 34 1 16-18 16-21 1-50s-19-31-72-31c-52 0-60 3-95 37-48 47-50 79-7 128 17 19 34 35 37 35s16-10 29-22zm117-23l19-40 20 43c20 40 23 42 64 42 24 0 43-2 43-5 0-6-99-98-116-108-10-6-33 9-74 45-33 29-60 56-60 61 0 4 19 7 42 5 39-3 45-7 62-43zm246-55c0-28-8-44-34-69-31-30-37-32-92-29-52 3-60 6-74 30-14 26-13 29 8 50l22 22v-22c0-19 5-22 45-22h45v40c0 29-4 40-15 40-21 0-19 10 7 37l22 23 33-32c25-24 33-40 33-68zm-302 3c3-19-1-23-22-23s-26 5-26 26 4 25 23 22c14-2 23-11 25-25zm202 2c0-20-5-25-25-25s-25 5-25 25 5 25 25 25 25-5 25-25zm-110-85c11-21-1-60-19-60-14 0-21 42-10 62 12 23 16 23 29-2zm-199-78c-4-67-11-66-11 3 0 32 3 55 7 51s6-28 4-54zm379 3c0-30-4-55-10-55-5 0-10 25-10 55s5 55 10 55c6 0 10-25 10-55zm-216 8l18-38 19 38 20 38 60-3 60-3 3-62c2-58 0-65-28-92-30-29-35-30-128-32-96-2-98-1-133 29-33 30-35 34-35 97v65h63c63 0 63 0 81-37z"/>
  <path d="m1333 543c-15-5-18-259-4-282 15-23 44 5 31 29-6 10-10 39-10 63 0 36 5 48 25 61 59 39 85 12 85-87 0-68 6-83 26-66 9 8 10 18 3 35-5 14-8 47-7 73 1 29-3 55-11 65-17 20-61 21-87 1-10-8-22-15-26-15s-8 29-10 63c-2 46-7 63-15 60z"/>
  <path d="m659 533c-3-32 3-269 7-275 3-5 15-2 26 6 19 14 24 13 49-1 23-14 30-14 44-3s12 14-12 27c-15 8-38 11-55 8l-27-6-3 122c-2 87-7 124-15 127-7 2-13 0-14-5z"/>
  <path d="m2167 524c-3-3-3-20 0-37 4-26 1-34-18-42-13-5-25-16-27-23-3-11 0-12 17-3 20 11 21 10 21-62 0-43 5-80 13-90 11-16 14-15 42 7l30 24-27-5-28-5v66c0 49 3 66 14 66 7 0 19 7 26 15 11 13 8 15-14 15-24 0-26 4-26 40 0 37-8 49-23 34z"/>
  <path d="m2300 495c0-27-7-42-27-60l-28-23 28 5 27 5v-73c0-93 8-108 44-83 30 22 33 34 7 27-22-6-29 21-23 84 3 30 9 43 23 46 25 7 25 27 0 27-16 0-20 8-23 37-4 49-28 57-28 8z"/>
  <path d="m3042 523c-10-4-10-8-1-19 6-8 8-25 5-40-6-22-11-25-36-19-56 12-120-41-120-101 0-38 19-56 57-53 15 1 35-1 43-4s24-7 35-9c24-4 32-42 15-64-21-24-87-18-117 12-22 22-27 24-40 11-12-12-10-18 17-41 44-36 89-35 134 4 54 48 57 110 5 110-24 0-24 2 0 41 15 24 17 38 10 56-7 19-4 30 12 52 14 19 19 36 14 50-7 22-10 23-33 14zm-40-110c36-32 14-103-32-103-20 0-60 44-60 66 0 19 37 54 57 54 9 0 25-7 35-17z"/>
  <path d="m3362 440c-39-24-42-24-42-4 0 11-5 14-16 10-9-3-16-6-17-6s-1-37 1-82c4-82 18-118 41-104 7 5 7 15 1 32-11 29-13 84-4 109 4 8 20 23 36 31 27 14 31 14 49-2 15-14 19-31 19-90 0-68 11-99 29-78 10 13-2 171-14 182-22 21-51 21-83 2z"/>
  <path d="m852 434c-12-8-22-24-22-34 0-25 22-17 35 13 13 29 39 33 64 8 34-34 27-50-19-44-33 5-45 1-64-16-33-31-37-57-14-86 22-29 54-32 86-9 21 15 24 15 35 0 18-24 42-5 28 22-6 11-11 48-11 81 0 49-4 62-19 71-28 15-73 12-99-6zm96-113c-2-15-14-31-29-40-24-13-29-13-53 2-33 22-36 64-4 76 12 4 37 3 55-2 28-9 33-15 31-36z"/>
  <path d="m1183 430c-38-23-67-74-59-104 3-13 15-35 27-49 29-38 67-36 105 5 16 18 20 25 8 15-36-30-77-20-99 24-19 36-19 64 1 83 20 21 53 20 76-1 29-26 46-1 19 26-26 26-37 26-78 1z"/>
  <path d="m1562 420c-47-46-48-101-5-144 31-31 52-33 87-5 59 46 68 109 24 157-30 31-70 28-106-8zm82-23c15-19 26-45 26-59 0-22-32-68-47-68-4 0-22 14-40 32-37 36-44 80-16 110 24 27 49 22 77-15z"/>
  <path d="m1731 441c-9-6-10-11-2-15 6-4 11-36 11-76 0-95 33-123 100-86 21 12 26 12 36-3 24-32 37 2 35 91s-9 106-36 90c-12-6-14-11-6-16 20-13 13-100-10-130-22-28-60-34-77-13-6 7-12 46-14 87-3 73-11 88-37 71z"/>
  <path d="m1989 422c-24-21-32-39-36-74-5-40-2-50 20-72 14-14 37-26 50-26 25 0 77 34 77 51 0 5-9 0-20-11s-26-20-34-20c-15 0-64 36-56 42 3 2 24 17 48 32 49 34 65 72 37 93-28 20-51 16-86-15zm59-4c21-21 13-47-25-72-28-19-39-22-45-13-31 49 31 124 70 85z"/>
  <path d="m2434 416c-27-27-34-42-34-74 0-51 31-92 69-92 30 0 81 33 81 52 0 7-11 1-26-13-23-22-27-22-51-9-39 22-37 32 12 63 52 33 69 72 40 94-30 21-55 15-91-21zm66-5c16-31 13-39-27-65-39-27-53-22-53 19 0 52 58 86 80 46z"/>
  <path d="m2718 434c-16-8-28-23-28-34 0-25 22-17 35 13 6 12 18 23 28 25 23 5 57-25 57-49 0-14-7-16-40-12-33 5-45 2-65-17-62-59 14-150 77-93 17 15 19 15 32-3 24-32 33-5 27 79-5 62-10 82-25 93-25 18-63 17-98-2zm92-107c0-26-28-57-52-57s-58 35-58 60c0 27 35 40 77 27 23-7 33-16 33-30z"/>
  <path d="m3134 416c-28-28-34-41-34-78 0-77 66-113 124-67 14 11 26 25 26 31 0 7-11 1-26-13-23-22-27-22-51-9-39 22-37 32 13 65 51 34 67 71 39 92-30 21-55 15-91-21zm66-7c15-28 8-42-33-67-40-23-47-20-47 21 0 57 57 90 80 46z"/>
  <path d="m3564 431c-67-41-82-98-38-150 34-41 71-41 109-1 16 17 24 30 18 30s-16-7-23-15c-28-34-87-3-105 56-16 50 53 90 90 53 25-26 44-1 20 26-22 25-32 25-71 1z"/>
  <path d="m3727 430c-51-40-59-134-14-165 35-24 70-18 103 17l29 32-29-22c-35-27-47-27-76-4l-23 18 52 37c36 26 51 44 51 60 0 48-48 62-93 27zm57-22c14-23 0-47-43-71l-31-19v37c0 20 5 45 11 56 12 24 47 22 63-3z"/>
  <path d="m133 73c20-2 54-2 75 0 20 2 3 4-38 4s-58-2-37-4z"/>
  <path d="m337 73c18-2 50-2 70 0 21 2 7 4-32 4-38 0-55-2-38-4z"/>
 </g>
</svg>
